<?xml version="1.0" standalone="no"?>
<!DOCTYPE svg PUBLIC "-//W3C//DTD SVG 20010904//EN"
 "http://www.w3.org/TR/2001/REC-SVG-20010904/DTD/svg10.dtd">
<svg version="1.0" xmlns="http://www.w3.org/2000/svg"
 width="297.000000pt" height="297.000000pt" viewBox="0 0 297.000000 297.000000"
 preserveAspectRatio="xMidYMid meet">
<metadata>
Created by potrace 1.14, written by Peter Selinger 2001-2017
</metadata>
<g transform="translate(0.000000,297.000000) scale(0.100000,-0.100000)"
fill="#000000" stroke="none">
<path d="M0 1485 l0 -1485 1485 0 1485 0 0 1485 0 1485 -1485 0 -1485 0 0
-1485z m920 1260 c11 -10 24 -41 31 -70 12 -55 10 -94 -26 -455 -31 -322 -29
-621 7 -734 7 -21 32 -60 55 -87 24 -26 59 -74 78 -105 34 -55 35 -62 35 -153
0 -91 -14 -326 -41 -704 -9 -127 -16 -170 -26 -174 -8 -3 -18 -2 -22 3 -5 5
-14 187 -20 404 -9 288 -15 396 -24 402 -30 19 -36 -14 -72 -477 -8 -99 -15
-190 -15 -202 0 -17 -6 -23 -24 -23 -27 0 -21 -40 -57 400 -12 146 -25 275
-30 288 -9 25 -27 29 -35 9 -3 -8 -10 -191 -17 -408 -12 -383 -13 -394 -32
-394 -18 0 -21 9 -27 75 -15 158 -39 542 -45 710 -6 174 -6 175 20 225 14 28
50 78 79 112 65 75 74 100 89 260 13 140 2 400 -31 718 -30 283 -25 344 28
385 32 26 91 23 122 -5z m605 -1680 l0 -50 -80 -3 c-61 -2 -83 -7 -92 -19 -9
-11 -13 -55 -13 -129 l0 -111 31 -7 c17 -3 53 -6 80 -6 l49 0 0 -50 0 -49 -77
-3 -78 -3 -3 -114 c-3 -146 0 -151 110 -151 l78 0 0 -56 0 -56 -109 4 c-92 2
-112 6 -131 23 -47 42 -50 63 -50 407 0 294 2 326 18 357 30 56 72 72 177 69
l90 -3 0 -50z m360 43 c3 -7 39 -191 80 -408 41 -217 77 -405 80 -418 5 -20 2
-22 -44 -22 l-49 0 -13 86 c-8 59 -17 87 -28 92 -20 9 -123 8 -138 -1 -6 -4
-17 -45 -24 -92 l-12 -85 -49 0 c-26 0 -48 2 -48 5 0 3 7 38 15 78 8 40 44
227 80 416 36 190 68 348 71 353 8 13 74 9 79 -4z m355 -341 c0 -289 3 -357
14 -373 12 -16 30 -20 108 -24 l93 -5 0 -50 0 -50 -107 -3 c-82 -2 -115 1
-138 13 -59 31 -60 36 -60 460 l0 385 45 0 45 0 0 -353z"/>
<path d="M1837 863 c-14 -48 -48 -285 -43 -298 6 -17 91 -21 101 -5 6 9 -41
310 -50 318 -2 2 -6 -5 -8 -15z"/>
</g>
</svg>
